<svg width="40" height="40" viewBox="0 0 40 40" fill="none" xmlns="http://www.w3.org/2000/svg">
<path d="M21.9998 0.666687H5.99984C5.26346 0.666687 4.6665 1.26364 4.6665 2.00002V30C4.6665 30.7364 5.26346 31.3334 5.99984 31.3334H21.9998C22.7362 31.3334 23.3332 30.7364 23.3332 30V2.00002C23.3332 1.26364 22.7362 0.666687 21.9998 0.666687Z" fill="#46F8FF"/>
<path d="M23.3335 18V6.66669C23.3335 6.13625 23.5442 5.62755 23.9193 5.25247C24.2944 4.8774 24.8031 4.66669 25.3335 4.66669C25.8639 4.66669 26.3726 4.8774 26.7477 5.25247C27.1228 5.62755 27.3335 6.13625 27.3335 6.66669V20C27.3335 19.4696 27.5442 18.9609 27.9193 18.5858C28.2944 18.2107 28.8031 18 29.3335 18C29.8639 18 30.3726 18.2107 30.7477 18.5858C31.1228 18.9609 31.3335 19.4696 31.3335 20V20.6667C31.3335 20.4041 31.3853 20.1441 31.486 19.9015C31.5866 19.659 31.7342 19.4387 31.9202 19.2534C32.1289 19.0412 32.3847 18.8814 32.6668 18.7867C32.8798 18.706 33.1058 18.6653 33.3335 18.6667C33.8639 18.6667 34.3726 18.8774 34.7477 19.2525C35.1228 19.6275 35.3335 20.1363 35.3335 20.6667V21.3334C35.3335 20.8029 35.5442 20.2942 35.9193 19.9191C36.2944 19.5441 36.8031 19.3334 37.3335 19.3334C37.8639 19.3334 38.3726 19.5441 38.7477 19.9191C39.1228 20.2942 39.3335 20.8029 39.3335 21.3334V23.9734C39.333 24.4323 39.254 24.8877 39.1002 25.32L36.0002 34H22.6668L21.7135 31.3334L19.5668 25.32C19.4129 24.8877 19.334 24.4323 19.3335 23.9734V17.9934C19.3338 17.4648 19.544 16.958 19.9177 16.5842C20.2915 16.2105 20.7983 16.0004 21.3268 16C21.8589 16.0012 22.3691 16.212 22.7468 16.5867C22.9328 16.7721 23.0804 16.9923 23.181 17.2349C23.2817 17.4774 23.3335 17.7374 23.3335 18Z" fill="#FFC477"/>
<path d="M39.3333 21.3333V23.9733C39.3328 24.4322 39.2539 24.8876 39.1 25.32L36 34H34L37.1 25.32C37.2539 24.8876 37.3328 24.4322 37.3333 23.9733V21.3333C37.3334 21.0707 37.2815 20.8107 37.1809 20.5682C37.0802 20.3256 36.9326 20.1054 36.7467 19.92C36.6221 19.7973 36.4833 19.6898 36.3333 19.6C36.6378 19.4256 36.9825 19.3337 37.3333 19.3333C37.8638 19.3333 38.3725 19.544 38.7475 19.9191C39.1226 20.2942 39.3333 20.8029 39.3333 21.3333Z" fill="#FFA733"/>
<path d="M32.6665 34H35.9998V39.3333H32.6665V34Z" fill="#57A4FF"/>
<path d="M29.3335 34H32.6668V39.3333H29.3335V34Z" fill="#2488FF"/>
<path d="M26 34H29.3333V39.3333H26V34Z" fill="#57A4FF"/>
<path d="M22.6665 34H25.9998V39.3333H22.6665V34Z" fill="#2488FF"/>
<path d="M19.4665 31.3333L16.6665 35.3333H1.99984L0.666504 21.3333V18.6667C0.666504 17.9594 0.947455 17.2811 1.44755 16.781C1.94765 16.281 2.62593 16 3.33317 16H7.99984C8.70708 16 9.38536 16.281 9.88546 16.781C10.3856 17.2811 10.6665 17.9594 10.6665 18.6667C10.6665 19.3739 10.3856 20.0522 9.88546 20.5523C9.38536 21.0524 8.70708 21.3333 7.99984 21.3333H4.6665V30C4.66756 30.3533 4.80837 30.6918 5.05819 30.9416C5.30801 31.1915 5.64654 31.3323 5.99984 31.3333H19.4665Z" fill="#FFC477"/>
<path d="M14 15.3333C17.3137 15.3333 20 12.647 20 9.33331C20 6.0196 17.3137 3.33331 14 3.33331C10.6863 3.33331 8 6.0196 8 9.33331C8 12.647 10.6863 15.3333 14 15.3333Z" fill="#FFCD00"/>
<path d="M19.9998 9.33331C19.9998 10.9246 19.3677 12.4507 18.2425 13.576C17.1173 14.7012 15.5911 15.3333 13.9998 15.3333C13.5514 15.3325 13.1044 15.2833 12.6665 15.1866C13.9924 14.8839 15.1763 14.1399 16.0242 13.0765C16.8721 12.0131 17.3339 10.6934 17.3339 9.33331C17.3339 7.97326 16.8721 6.65349 16.0242 5.59012C15.1763 4.52674 13.9924 3.78275 12.6665 3.47998C13.1044 3.3833 13.5514 3.33413 13.9998 3.33331C15.5911 3.33331 17.1173 3.96545 18.2425 5.09067C19.3677 6.21589 19.9998 7.74201 19.9998 9.33331Z" fill="#DDB200"/>
<path d="M2 35.3333H16.6667V39.3333H2V35.3333Z" fill="#2488FF"/>
<path d="M27.3335 6.66669V20H25.3335V6.66669C25.3337 6.3154 25.2414 5.97024 25.0659 5.66596C24.8903 5.36168 24.6377 5.109 24.3335 4.93335C24.6376 4.75776 24.9826 4.66535 25.3338 4.66541C25.685 4.66546 26.03 4.75799 26.3341 4.93368C26.6381 5.10936 26.8906 5.36202 27.066 5.66624C27.2415 5.97046 27.3337 6.31551 27.3335 6.66669Z" fill="#FFA733"/>
<path d="M36.1953 8.19533L37.138 9.138L39.8047 6.47133C39.9296 6.34631 39.9999 6.17678 39.9999 6C39.9999 5.82322 39.9296 5.65368 39.8047 5.52867L37.138 2.862L36.1953 3.80467L37.724 5.33333H30V6.66667H37.724L36.1953 8.19533Z" fill="black"/>
<path d="M32.1954 14.4713L33.138 13.5286L31.6094 12H39.3334V10.6666H31.6094L33.138 9.13798L32.1954 8.19531L29.5287 10.862C29.4037 10.987 29.3335 11.1565 29.3335 11.3333C29.3335 11.5101 29.4037 11.6796 29.5287 11.8046L32.1954 14.4713Z" fill="black"/>
<path d="M39.22 19.4467C38.7474 18.9726 38.1131 18.6947 37.4441 18.6687C36.7752 18.6427 36.1212 18.8706 35.6133 19.3067C35.3802 18.909 35.0471 18.5792 34.6472 18.35C34.2472 18.1208 33.7943 18.0001 33.3333 18C33.0352 17.9958 32.7389 18.0478 32.46 18.1533C32.151 18.2625 31.8658 18.43 31.62 18.6467C31.3854 18.2483 31.0512 17.9178 30.6504 17.6876C30.2495 17.4573 29.7956 17.3353 29.3333 17.3333C28.8642 17.3347 28.4039 17.4613 28 17.7V6.66667C28 5.95942 27.719 5.28115 27.219 4.78105C26.7189 4.28095 26.0406 4 25.3333 4C24.8642 4.00136 24.4039 4.12794 24 4.36667V2C23.9984 1.47005 23.7872 0.962265 23.4125 0.587535C23.0377 0.212805 22.5299 0.00158273 22 0H6C5.47005 0.00158273 4.96227 0.212805 4.58753 0.587535C4.2128 0.962265 4.00158 1.47005 4 2V15.3333H3.33333C2.44928 15.3333 1.60143 15.6845 0.976311 16.3096C0.351189 16.9348 0 17.7826 0 18.6667V21.3933L1.33333 35.3667V39.3333C1.33333 39.5101 1.40357 39.6797 1.5286 39.8047C1.65362 39.9298 1.82319 40 2 40H16.6667C16.8435 40 17.013 39.9298 17.1381 39.8047C17.2631 39.6797 17.3333 39.5101 17.3333 39.3333V35.5467L19.8133 32H21.2467L22 34.1133V39.3333C22 39.5101 22.0702 39.6797 22.1953 39.8047C22.3203 39.9298 22.4899 40 22.6667 40H36C36.1768 40 36.3464 39.9298 36.4714 39.8047C36.5964 39.6797 36.6667 39.5101 36.6667 39.3333V34.1133L39.7267 25.54C39.9067 25.0373 39.9992 24.5073 40 23.9733V21.3333C40.0003 20.983 39.9315 20.6361 39.7977 20.3124C39.6639 19.9887 39.4676 19.6945 39.22 19.4467ZM16 38.6667H2.66667V36H16V38.6667ZM16.32 34.6667H2.60667L1.33333 21.3333V18.6667C1.33492 18.1367 1.54614 17.6289 1.92087 17.2542C2.2956 16.8795 2.80339 16.6682 3.33333 16.6667H8C8.53043 16.6667 9.03914 16.8774 9.41421 17.2525C9.78929 17.6275 10 18.1362 10 18.6667C10 19.1971 9.78929 19.7058 9.41421 20.0809C9.03914 20.456 8.53043 20.6667 8 20.6667H4.66667C4.48986 20.6667 4.32029 20.7369 4.19526 20.8619C4.07024 20.987 4 21.1565 4 21.3333V30C4.00158 30.5299 4.2128 31.0377 4.58753 31.4125C4.96227 31.7872 5.47005 31.9984 6 32H18.1867L16.32 34.6667ZM6 30.6667C5.82319 30.6667 5.65362 30.5964 5.5286 30.4714C5.40357 30.3464 5.33333 30.1768 5.33333 30V28H17.3333V26.6667H5.33333V22H8C8.88406 22 9.7319 21.6488 10.357 21.0237C10.9821 20.3986 11.3333 19.5507 11.3333 18.6667C11.3333 17.7826 10.9821 16.9348 10.357 16.3096C9.7319 15.6845 8.88406 15.3333 8 15.3333H5.33333V2C5.33333 1.82319 5.40357 1.65362 5.5286 1.5286C5.65362 1.40357 5.82319 1.33333 6 1.33333H22C22.1768 1.33333 22.3464 1.40357 22.4714 1.5286C22.5964 1.65362 22.6667 1.82319 22.6667 2V15.7067C22.2618 15.4637 21.7988 15.3347 21.3267 15.3333C20.6217 15.3351 19.9462 15.6159 19.4477 16.1144C18.9492 16.6128 18.6684 17.2884 18.6667 17.9933V23.9733C18.668 24.5095 18.7604 25.0415 18.94 25.5467L20.7667 30.6667H6ZM25.3333 38.6667H23.3333V34.6667H25.3333V38.6667ZM28.6667 38.6667H26.6667V34.6667H28.6667V38.6667ZM32 38.6667H30V34.6667H32V38.6667ZM35.3333 38.6667H33.3333V34.6667H35.3333V38.6667ZM38.6667 23.9733C38.6659 24.3549 38.6005 24.7336 38.4733 25.0933L35.5333 33.3333H23.1333L20.1933 25.1C20.0667 24.7378 20.0014 24.357 20 23.9733V17.9933C20.0004 17.8182 20.0354 17.6449 20.1028 17.4833C20.1702 17.3217 20.2688 17.175 20.3929 17.0515C20.517 16.928 20.6642 16.8302 20.8262 16.7636C20.9881 16.6969 21.1616 16.6629 21.3367 16.6633C21.5118 16.6638 21.6851 16.6987 21.8467 16.7661C22.0083 16.8335 22.155 16.9321 22.2785 17.0562C22.402 17.1803 22.4998 17.3276 22.5665 17.4895C22.6331 17.6514 22.6671 17.8249 22.6667 18V23.3333H24V6.66667C24.0026 6.31385 24.1439 5.97623 24.3934 5.72675C24.6429 5.47727 24.9805 5.33595 25.3333 5.33333C25.6866 5.33439 26.0252 5.4752 26.275 5.72502C26.5248 5.97484 26.6656 6.31337 26.6667 6.66667V23.3333H28V20C28.0026 19.6472 28.1439 19.3096 28.3934 19.0601C28.6429 18.8106 28.9805 18.6693 29.3333 18.6667C29.6866 18.6677 30.0252 18.8085 30.275 19.0584C30.5248 19.3082 30.6656 19.6467 30.6667 20V23.3333H32V20.6667C32.0001 20.4918 32.0349 20.3186 32.1025 20.1572C32.17 19.9959 32.2688 19.8495 32.3933 19.7267C32.5343 19.5779 32.711 19.4677 32.9067 19.4067C33.0435 19.3575 33.1879 19.3327 33.3333 19.3333C33.6866 19.3344 34.0252 19.4752 34.275 19.725C34.5248 19.9748 34.6656 20.3134 34.6667 20.6667V24H36V21.3333C36.0011 20.98 36.1419 20.6415 36.3917 20.3917C36.6415 20.1419 36.98 20.0011 37.3333 20C37.6861 20.0026 38.0238 20.1439 38.2733 20.3934C38.5227 20.6429 38.6641 20.9805 38.6667 21.3333V23.9733Z" fill="black"/>
<path d="M14.0002 2.66669C12.6816 2.66669 11.3927 3.05768 10.2964 3.79022C9.20004 4.52277 8.34555 5.56396 7.84097 6.78213C7.33638 8.0003 7.20436 9.34075 7.4616 10.634C7.71883 11.9272 8.35377 13.115 9.28612 14.0474C10.2185 14.9797 11.4064 15.6147 12.6996 15.8719C13.9928 16.1292 15.3332 15.9971 16.5514 15.4926C17.7696 14.988 18.8108 14.1335 19.5433 13.0372C20.2758 11.9408 20.6668 10.6519 20.6668 9.33335C20.664 7.56611 19.9607 5.87206 18.7111 4.62242C17.4615 3.37279 15.7674 2.66951 14.0002 2.66669ZM14.0002 14.6667C12.9453 14.6667 11.9142 14.3539 11.0371 13.7679C10.1601 13.1818 9.47648 12.3489 9.07281 11.3743C8.66914 10.3998 8.56352 9.32744 8.76931 8.29287C8.9751 7.25831 9.48305 6.308 10.2289 5.56212C10.9748 4.81624 11.9251 4.30829 12.9597 4.1025C13.9942 3.89671 15.0666 4.00233 16.0411 4.406C17.0157 4.80966 17.8486 5.49325 18.4347 6.37031C19.0207 7.24737 19.3335 8.27852 19.3335 9.33335C19.3316 10.7472 18.769 12.1027 17.7693 13.1024C16.7695 14.1022 15.4141 14.6647 14.0002 14.6667Z" fill="black"/>
<path d="M11 8.97656H11.4648V7H12.7227L13.3633 8.97656H14.0742V7H14.9609V8.97656H15.418V9.56641H14.9609V10.1445H15.418V10.7344H14.9609V12.7109H13.6992L13.0586 10.7344H12.3555V12.7109H11.4648V10.7344H11V10.1445H11.4648V9.56641H11V8.97656ZM12.3555 10.1445H12.8672L12.6836 9.56641H12.3555V10.1445ZM13.7461 10.1445H14.0742V9.56641H13.5547L13.7461 10.1445ZM12.2812 8.3125L12.3281 8.97656H12.4883L12.2812 8.3125ZM14.1445 11.3672C14.1367 11.2995 14.1211 11.0885 14.0977 10.7344H13.9375L14.1445 11.3672Z" fill="black"/>
</svg>
