<svg width="40" height="40" viewBox="0 0 40 40" fill="none" xmlns="http://www.w3.org/2000/svg">
<path d="M14.168 13.7655L14.1913 2.30344C14.1921 1.35714 15.0044 0.590643 16.0057 0.591431L34.1544 0.623763C35.1549 0.626129 35.9647 1.39578 35.9631 2.34208L35.9472 14.0864L31.734 15.9782L17.5846 15.5051L14.168 13.7655Z" fill="#6CF5C2"/>
<path d="M30.1684 15.7119C30.4884 13.8992 29.7133 11.9903 28.0137 10.872C25.6646 9.32617 22.4378 9.87715 20.8072 12.1029C20.0302 13.1632 19.7543 14.4113 19.9334 15.5949L30.1684 15.7119Z" fill="#05E39C"/>
<path d="M18.3803 0.595374C17.4365 0.655306 16.6891 1.40998 16.6882 2.33341L16.6649 13.8025L14.168 13.7655L14.1913 2.30344C14.1921 1.35714 15.0044 0.590643 16.0057 0.591431L18.3803 0.595374Z" fill="#05E39C"/>
<path d="M37.2164 30.8614L37.2119 36.9091C37.2104 38.2907 36.1104 39.4101 34.7548 39.4086L7.14254 39.387C5.78686 39.3854 4.68844 38.2645 4.68994 36.8829L4.70584 16.2605C4.70659 14.8781 5.80658 13.7587 7.16293 13.7603L34.7744 13.7827C36.1301 13.7834 37.2285 14.9044 37.2278 16.286L37.2224 23.0837L37.2274 30.8824" fill="#BC7C63"/>
<path d="M36.4661 30.9062L32.2909 30.9029C30.6865 30.9017 29.387 29.6685 29.3882 28.1484L29.39 25.785C29.3912 24.2647 30.693 23.0333 32.2976 23.0345L36.4729 23.0379C38.0773 23.0391 39.3768 24.2723 39.3756 25.7924L39.3738 28.1558C39.3726 29.6761 38.0708 30.9075 36.4661 30.9062Z" fill="#AA6A51"/>
<path d="M8.81692 39.3889L7.1423 39.3873C5.78645 39.3858 4.68862 38.2644 4.68945 36.8828L4.70527 16.2606C4.7061 14.8782 5.80642 13.7584 7.1631 13.76L9.56185 13.7624C8.25011 13.8136 7.20306 14.9184 7.20222 16.2748L7.18641 37.0169C7.18558 38.1106 7.86558 39.0411 8.81692 39.3889Z" fill="#AA6A51"/>
<path d="M8.08542 20.3151C12.2081 20.3151 15.5502 17.1487 15.5502 13.2426C15.5502 9.33653 12.2081 6.17004 8.08542 6.17004C3.96272 6.17004 0.620605 9.33653 0.620605 13.2426C0.620605 17.1487 3.96272 20.3151 8.08542 20.3151Z" fill="#FFE177"/>
<path d="M8.08484 17.2127C10.3991 17.2127 12.2751 15.4352 12.2751 13.2426C12.2751 11.0499 10.3991 9.27246 8.08484 9.27246C5.7706 9.27246 3.89453 11.0499 3.89453 13.2426C3.89453 15.4352 5.7706 17.2127 8.08484 17.2127Z" fill="#FFC344"/>
<path d="M5.30364 18.2438C6.44226 19.3226 7.85803 19.9803 9.3329 20.2161C7.03154 20.5835 4.58286 19.9267 2.80669 18.2438C-0.108089 15.4814 -0.108089 11.0039 2.80669 8.24145C4.58286 6.55862 7.03154 5.90173 9.3329 6.26921C7.85803 6.505 6.44226 7.16267 5.30364 8.24145C2.38887 11.0039 2.38887 15.4814 5.30364 18.2438Z" fill="#FFD064"/>
<path d="M34.2098 30.9045L32.2905 30.9029C30.6866 30.9013 29.3874 29.6688 29.3882 28.1484L29.3899 25.785C29.3915 24.2646 30.6933 23.0328 32.298 23.0344L34.6926 23.036C33.1353 23.0857 31.8885 24.2969 31.8868 25.785L31.8851 28.2052C31.8835 29.5371 32.8831 30.6498 34.2098 30.9045Z" fill="#935B44"/>
<path d="M8.97037 38.7974L7.14277 38.7958C6.13342 38.7947 5.31275 37.9366 5.31342 36.8831L5.32607 20.4448C6.21565 20.7492 7.15026 20.9029 8.08537 20.9029C10.1568 20.9029 12.2282 20.1559 13.8051 18.6618C15.0823 17.4518 15.8418 15.9345 16.0847 14.3589C16.0847 14.3589 35.3651 14.4492 35.6306 14.5962C36.2309 14.9305 36.6034 15.5777 36.6028 16.2855L36.602 17.9494C36.6018 18.276 36.8812 18.5409 37.2259 18.541H37.2263C37.5709 18.541 37.8503 18.2765 37.8505 17.9498L37.8513 16.2861C37.8522 15.2847 37.3696 14.3531 36.5716 13.7746L36.5869 2.34295C36.5892 1.07192 35.4986 0.0353284 34.1552 0.0321741L16.0059 0C16.0051 0 16.0046 0 16.0039 0C14.6611 0 13.5679 1.03273 13.5667 2.30226L13.565 3.08375C13.5644 3.41038 13.8433 3.67574 14.188 3.67637H14.1893C14.5335 3.67637 14.8128 3.41235 14.8136 3.08611L14.8152 2.30392C14.8157 1.68559 15.3488 1.18287 16.0032 1.18287H16.0042L34.1526 1.2152C34.8076 1.21678 35.3396 1.72179 35.3385 2.3413L35.3238 13.2419C35.143 13.209 30.5727 13.1879 30.5727 13.1879C30.1813 12.0558 29.4121 11.0728 28.3695 10.3864C27.0964 9.5483 25.5554 9.23027 24.0299 9.49081C22.5045 9.75136 21.1777 10.5593 20.2945 11.7654C19.9724 12.2042 19.7232 12.6782 19.5489 13.1789L16.1688 13.1761C16.1555 11.7059 15.6998 10.2392 14.8013 8.97185L14.8077 5.76721C14.8083 5.44058 14.5293 5.1753 14.1846 5.17467C14.1842 5.17467 14.1838 5.17467 14.1833 5.17467C13.8392 5.17467 13.5598 5.43877 13.5591 5.765L13.5555 7.59861C10.3861 4.83834 5.43768 4.91247 2.36543 7.82336C-0.788476 10.8115 -0.788476 15.6737 2.36543 18.6619C2.88771 19.1567 3.46509 19.5678 4.07792 19.8987L4.06486 36.8824C4.06386 38.5877 5.44384 39.9768 7.14135 39.9788L8.96912 39.9804H8.96971C9.3142 39.9804 9.59361 39.7159 9.59395 39.3895C9.59436 39.0628 9.31512 38.7977 8.97037 38.7974ZM21.3199 12.4403C22.0133 11.4936 23.0545 10.8595 24.2516 10.655C25.4483 10.4504 26.658 10.7001 27.6571 11.3579C28.3598 11.8204 28.9041 12.4546 29.2386 13.1868L20.8837 13.18C21.0024 12.9224 21.1476 12.675 21.3199 12.4403ZM3.24835 8.65973C4.58189 7.39626 6.33367 6.76453 8.08537 6.76453C9.83707 6.76453 11.5888 7.39626 12.9224 8.65973C15.5895 11.1867 15.5895 15.2984 12.9224 17.8254C10.2552 20.3525 5.91552 20.3524 3.24835 17.8254C0.581187 15.2985 0.581187 11.1867 3.24835 8.65973Z" fill="black"/>
<path d="M37.8468 22.7111L37.8482 20.6313C37.8484 20.3046 37.569 20.0397 37.2244 20.0394C37.2242 20.0394 37.2241 20.0394 37.2239 20.0394C36.8794 20.0394 36.5999 20.304 36.5997 20.6305L36.5985 22.4495C36.557 22.4481 32.2984 22.443 32.2984 22.443C32.2974 22.443 32.2965 22.443 32.2954 22.443C31.3538 22.443 30.4683 22.7902 29.8018 23.4206C29.1346 24.0517 28.7667 24.8912 28.7662 25.7845L28.7643 28.1479C28.7629 29.9916 30.3449 31.4928 32.2907 31.4943C32.2907 31.4943 36.5509 31.4961 36.5918 31.4948L36.5873 36.9084C36.587 37.4268 36.3906 37.9118 36.0343 38.2743C35.6902 38.6244 35.2369 38.8171 34.7571 38.8171C34.7564 38.8171 34.7556 38.8171 34.755 38.8171L11.8005 38.7998C11.8004 38.7998 11.8002 38.7998 11.8 38.7998C11.4555 38.7998 11.176 39.0643 11.1758 39.3907C11.1755 39.7174 11.4548 39.9823 11.7995 39.9827L34.7538 40H34.7574C35.5873 40 36.3651 39.6734 36.9479 39.0804C37.5199 38.4984 37.8352 37.7272 37.8357 36.9092L37.8404 31.2362C38.2544 31.0707 38.635 30.8298 38.9626 30.52C39.6298 29.8889 39.9976 29.0494 39.9982 28.1561L40 25.7927C40.0011 24.4105 39.112 23.2206 37.8468 22.7111ZM38.7497 28.1553C38.7492 28.7326 38.5115 29.2751 38.0803 29.6831C37.6492 30.0909 37.0767 30.3124 36.4668 30.3148L32.2915 30.3115C31.0341 30.3105 30.0116 29.3404 30.0126 28.1489L30.0144 25.7854C30.0148 25.2081 30.2525 24.6656 30.6837 24.2577C31.1145 23.8502 31.6867 23.626 32.2952 23.626H32.2971L36.4724 23.6293C37.7299 23.6303 38.7523 24.6004 38.7513 25.7919L38.7497 28.1553Z" fill="black"/>
<path d="M12.9001 13.2426C12.9001 10.7273 10.7403 8.68103 8.08554 8.68103C5.43078 8.68103 3.271 10.7273 3.271 13.2426C3.271 15.7578 5.43078 17.8041 8.08554 17.8041C10.7403 17.8041 12.9001 15.7578 12.9001 13.2426ZM8.08554 16.6213C6.11919 16.6213 4.51947 15.1056 4.51947 13.2426C4.51947 11.3796 6.11919 9.8639 8.08554 9.8639C10.0519 9.8639 11.6516 11.3796 11.6516 13.2426C11.6516 15.1056 10.0519 16.6213 8.08554 16.6213Z" fill="black"/>
</svg>
